<svg width="374" height="590" viewBox="0 0 374 590" fill="none" xmlns="http://www.w3.org/2000/svg">
<g clip-path="url(#clip0)">
<mask id="mask0" style="mask-type:alpha" maskUnits="userSpaceOnUse" x="0" y="-8" width="375" height="598">
<rect y="-8" width="375" height="598" fill="#C4C4C4"/>
</mask>
<g mask="url(#mask0)">
<path opacity="0.2" fill-rule="evenodd" clip-rule="evenodd" d="M133.771 71.7954C131.805 70.1458 128.874 70.4022 127.225 72.3681L126.334 73.4293C125.574 74.3351 124.452 74.8582 123.27 74.8582H118C116.343 74.8582 115 76.2013 115 77.8582V78.7812C115 80.4381 116.343 81.7812 118 81.7812H118.504C118.829 81.7812 119.007 82.1616 118.798 82.4111C117.148 84.377 117.404 87.3079 119.37 88.9575C119.862 89.3699 120.594 89.3058 121.007 88.8143L125.709 83.2101C126.469 82.3043 127.591 81.7812 128.774 81.7812H148C149.657 81.7812 151 80.4381 151 78.7812V77.8582C151 76.2013 149.657 74.8582 148 74.8582H134.579C133.842 74.8582 133.44 73.9969 133.914 73.4319C134.327 72.9405 134.262 72.2077 133.771 71.7954ZM116 193.141C116 195.572 118.151 197.44 120.562 197.125C120.667 197.111 120.773 197.097 120.878 197.083C122.882 196.822 124.39 195.121 124.39 193.1V161.774C124.39 159.565 126.181 157.774 128.39 157.774H141.779C143.989 157.774 145.779 159.565 145.779 161.774V190.182C145.779 192.513 147.764 194.349 150.09 194.189C161.495 193.405 173.15 193 185 193C210.026 193 234.182 194.808 256.946 198.17C259.431 198.537 261.656 196.575 261.574 194.064L259.619 133.883C259.598 133.241 259.632 132.598 259.719 131.961C261.524 118.848 280.476 118.848 282.281 131.961C282.369 132.598 282.402 133.241 282.381 133.883L281.927 147.87C281.854 150.129 283.665 152 285.925 152H295.39C297.599 152 299.39 153.791 299.39 156L299.39 181.774C299.39 183.983 301.181 185.774 303.39 185.774H309.701C311.568 185.774 313.187 184.483 313.602 182.662L322.6 143.133C323.545 138.984 329.456 138.984 330.4 143.133L348.152 221.112C348.435 222.359 349.307 223.397 350.478 223.91C400.539 245.871 432 277.651 432 313C432 341.884 410.995 368.385 376.001 389.093C374.77 389.821 374 391.143 374 392.572V613C374 615.209 372.209 617 370 617H4C1.79086 617 0 615.209 0 613V394.88C0 393.42 -0.803455 392.075 -2.07579 391.358C-39.4183 370.334 -62 342.948 -62 313C-62 278.959 -32.8248 248.229 14.0401 226.389C15.4625 225.726 16.3897 224.3 16.3897 222.731V190.774C16.3897 188.565 18.1805 186.774 20.3897 186.774H33.7794C35.9886 186.774 37.7794 188.565 37.7794 190.774V195C37.7794 197.209 39.5703 199 41.7794 199H42.3898C44.5989 199 46.3898 200.791 46.3898 203V208.13C46.3898 210.855 49.0557 212.783 51.6571 211.971C52.0542 211.847 52.452 211.724 52.8507 211.601C54.5399 211.08 55.701 209.524 55.701 207.757V176.055C55.701 173.846 53.9101 172.055 51.701 172.055H46C44.3432 172.055 43 170.712 43 169.055V157.701C43 156.044 44.3432 154.701 46 154.701H53.1886C55.29 154.701 57.0331 153.075 57.1789 150.978L61.7007 86L66.2225 150.978C66.3684 153.075 68.1115 154.701 70.2129 154.701H77.4489C79.1057 154.701 80.4489 156.044 80.4489 157.701V169.055C80.4489 170.712 79.1057 172.055 77.4489 172.055H71.701C69.4918 172.055 67.701 173.846 67.701 176.055V180C67.701 182.209 69.4918 184 71.701 184H112C114.209 184 116 185.791 116 188V193.141ZM298.5 71C293.806 71 290 74.8056 290 79.5C290 84.1944 293.806 88 298.5 88H310.5C315.194 88 319 84.1944 319 79.5C319 74.8056 315.194 71 310.5 71H298.5Z" fill="black"/>
</g>
<circle opacity="0.2" cx="109" cy="109" r="9" fill="black"/>
<circle opacity="0.2" cx="133.5" cy="123.5" r="3.5" fill="#414B5A"/>
<g opacity="0.5">
<rect x="287" y="160" width="4" height="4" fill="#C4C4C4"/>
<rect x="280" y="160" width="4" height="4" fill="#C4C4C4"/>
<rect x="287" y="167" width="4" height="4" fill="#C4C4C4"/>
<rect x="281" y="167" width="4" height="4" fill="#C4C4C4"/>
<rect x="287" y="173" width="4" height="4" fill="#C4C4C4"/>
</g>
<path opacity="0.1" fill-rule="evenodd" clip-rule="evenodd" d="M100.5 281C111.065 281 120.333 287.59 125.544 297.494C128.931 295.885 132.628 295 136.5 295C148.725 295 159.212 303.822 163.688 316.393C169.903 316.132 176.176 316 182.5 316C208.196 316 233.048 318.185 256.579 322.264C261.811 312.488 271.017 306 281.5 306C283.25 306 284.965 306.181 286.632 306.528C291.273 294.419 301.558 286 313.5 286C326.396 286 337.36 295.818 341.37 309.498C351.214 315.169 358 327.144 358 341C358 345.732 357.208 350.245 355.774 354.362C414.017 384.171 451 428.721 451 478.5C451 568.246 330.788 641 182.5 641C34.2115 641 -86 568.246 -86 478.5C-86 412.254 -20.5009 355.266 73.4414 329.964C71.871 325.686 71 320.964 71 316C71 296.67 84.2076 281 100.5 281Z" fill="black"/>
</g>
<defs>
<clipPath id="clip0">
<rect width="374" height="590" fill="white"/>
</clipPath>
</defs>
</svg>
